<svg xmlns="http://www.w3.org/2000/svg" width="1200" height="630" viewBox="0 0 1200 630" role="img" aria-labelledby="title desc">
  <title id="title">Testing thumbnail</title>
  <desc id="desc">ModernDevBlog roadmap thumbnail for Testing.</desc>
  <defs>
    <linearGradient id="bg" x1="0" y1="0" x2="1" y2="1">
      <stop offset="0%" stop-color="#07111f"/>
      <stop offset="48%" stop-color="#0f172a"/>
      <stop offset="100%" stop-color="#111827"/>
    </linearGradient>
    <radialGradient id="glowA" cx="25%" cy="25%" r="70%">
      <stop offset="0%" stop-color="#84cc16" stop-opacity="0.55"/>
      <stop offset="100%" stop-color="#84cc16" stop-opacity="0"/>
    </radialGradient>
    <radialGradient id="glowB" cx="80%" cy="70%" r="70%">
      <stop offset="0%" stop-color="#22c55e" stop-opacity="0.42"/>
      <stop offset="100%" stop-color="#22c55e" stop-opacity="0"/>
    </radialGradient>
    <filter id="softShadow" x="-20%" y="-20%" width="140%" height="140%">
      <feDropShadow dx="0" dy="24" stdDeviation="28" flood-color="#000000" flood-opacity="0.35"/>
    </filter>
    <pattern id="grid" width="42" height="42" patternUnits="userSpaceOnUse">
      <path d="M 42 0 L 0 0 0 42" fill="none" stroke="#ffffff" stroke-opacity="0.055" stroke-width="1"/>
    </pattern>
  </defs>
  <rect width="1200" height="630" fill="url(#bg)"/>
  <rect width="1200" height="630" fill="url(#grid)"/>
  <circle cx="210" cy="145" r="240" fill="url(#glowA)"/>
  <circle cx="960" cy="470" r="310" fill="url(#glowB)"/>
  <path d="M70 520 C270 430 360 530 520 440 S830 280 1120 360" fill="none" stroke="#84cc16" stroke-opacity="0.28" stroke-width="3"/>
  <path d="M90 455 C280 365 405 400 555 330 S820 185 1110 250" fill="none" stroke="#22c55e" stroke-opacity="0.25" stroke-width="2"/>
  <g filter="url(#softShadow)">
    <rect x="80" y="78" width="1040" height="474" rx="38" fill="#0b1220" fill-opacity="0.78" stroke="#ffffff" stroke-opacity="0.12"/>
    <rect x="104" y="102" width="992" height="426" rx="30" fill="#111827" fill-opacity="0.54" stroke="#ffffff" stroke-opacity="0.07"/>
  </g>
  <g transform="translate(130 130)">
    <rect x="0" y="0" width="150" height="68" rx="20" fill="#84cc16" fill-opacity="0.18" stroke="#84cc16" stroke-opacity="0.72"/>
    <text x="75" y="45" text-anchor="middle" font-family="JetBrains Mono, Consolas, monospace" font-size="30" font-weight="800" fill="#e5faff">12</text>
  </g>
  <g transform="translate(130 246)">
    <text font-family="Georgia, 'Times New Roman', serif" font-size="58" font-weight="700" fill="#f8fafc">Testing</text>
    <text y="72" font-family="Inter, Segoe UI, sans-serif" font-size="27" font-weight="600" fill="#cbd5e1">Vitest · Playwright · E2E</text>
  </g>
  <g transform="translate(760 150)">
    <rect x="0" y="0" width="280" height="280" rx="42" fill="#020617" fill-opacity="0.54" stroke="#ffffff" stroke-opacity="0.12"/>
    <circle cx="82" cy="90" r="34" fill="#84cc16" fill-opacity="0.86"/>
    <circle cx="198" cy="86" r="26" fill="#22c55e" fill-opacity="0.86"/>
    <circle cx="142" cy="198" r="42" fill="#f8fafc" fill-opacity="0.12" stroke="#84cc16" stroke-opacity="0.65" stroke-width="3"/>
    <path d="M111 96 L173 88 M97 118 L128 168 M186 110 L158 164" stroke="#e2e8f0" stroke-opacity="0.68" stroke-width="5" stroke-linecap="round"/>
    <text x="140" y="264" text-anchor="middle" font-family="JetBrains Mono, Consolas, monospace" font-size="24" font-weight="800" fill="#f8fafc" opacity="0.9">TEST</text>
  </g>
  <g transform="translate(130 470)">
    <rect x="0" y="0" width="218" height="38" rx="19" fill="#22c55e" fill-opacity="0.16" stroke="#22c55e" stroke-opacity="0.45"/>
    <text x="109" y="26" text-anchor="middle" font-family="Inter, Segoe UI, sans-serif" font-size="16" font-weight="700" fill="#e2e8f0">ModernDevBlog Roadmap</text>
  </g>
</svg>
